<svg width="418" height="204" viewBox="0 0 418 204" fill="none" xmlns="http://www.w3.org/2000/svg">
<path d="M32.3203 186.458C32.3203 187.728 32.1035 188.671 31.6699 189.288C31.2363 189.906 30.5586 190.214 29.6367 190.214C28.7266 190.214 28.0527 189.913 27.6152 189.312C27.1777 188.706 26.9512 187.804 26.9355 186.605V185.158C26.9355 183.904 27.1523 182.972 27.5859 182.363C28.0195 181.753 28.6992 181.449 29.625 181.449C30.543 181.449 31.2188 181.744 31.6523 182.333C32.0859 182.919 32.3086 183.826 32.3203 185.052V186.458ZM31.2363 184.976C31.2363 184.058 31.1074 183.39 30.8496 182.972C30.5918 182.55 30.1836 182.339 29.625 182.339C29.0703 182.339 28.666 182.548 28.4121 182.966C28.1582 183.384 28.0273 184.027 28.0195 184.894V186.628C28.0195 187.55 28.1523 188.232 28.418 188.673C28.6875 189.111 29.0938 189.329 29.6367 189.329C30.1719 189.329 30.5684 189.122 30.8262 188.708C31.0879 188.294 31.2246 187.642 31.2363 186.751V184.976Z" fill="#333333"/>
<path d="M25.7949 18.097H24.7051V10.8724L22.5195 11.6752V10.6908L25.625 9.52478H25.7949V18.097ZM34.3203 14.4584C34.3203 15.7279 34.1035 16.6713 33.6699 17.2885C33.2363 17.9056 32.5586 18.2142 31.6367 18.2142C30.7266 18.2142 30.0527 17.9135 29.6152 17.3119C29.1777 16.7064 28.9512 15.8041 28.9355 14.6049V13.1576C28.9355 11.9037 29.1523 10.972 29.5859 10.3627C30.0195 9.7533 30.6992 9.44861 31.625 9.44861C32.543 9.44861 33.2188 9.74353 33.6523 10.3334C34.0859 10.9193 34.3086 11.8256 34.3203 13.0521V14.4584ZM33.2363 12.976C33.2363 12.058 33.1074 11.39 32.8496 10.972C32.5918 10.5502 32.1836 10.3392 31.625 10.3392C31.0703 10.3392 30.666 10.5482 30.4121 10.9662C30.1582 11.3842 30.0273 12.0267 30.0195 12.8939V14.6283C30.0195 15.5502 30.1523 16.2318 30.418 16.6732C30.6875 17.1107 31.0938 17.3295 31.6367 17.3295C32.1719 17.3295 32.5684 17.1224 32.8262 16.7084C33.0879 16.2943 33.2246 15.642 33.2363 14.7513V12.976Z" fill="#333333"/>
<path d="M26.4688 98.8197L26.9023 94.5658H31.2734V95.5677H27.8223L27.5645 97.8939C27.9824 97.6478 28.457 97.5248 28.9883 97.5248C29.7656 97.5248 30.3828 97.7826 30.8398 98.2982C31.2969 98.8099 31.5254 99.5033 31.5254 100.378C31.5254 101.257 31.2871 101.951 30.8105 102.458C30.3379 102.962 29.6758 103.214 28.8242 103.214C28.0703 103.214 27.4551 103.005 26.9785 102.587C26.502 102.169 26.2305 101.591 26.1641 100.853H27.1895C27.2559 101.341 27.4297 101.71 27.7109 101.96C27.9922 102.206 28.3633 102.329 28.8242 102.329C29.3281 102.329 29.7227 102.158 30.0078 101.814C30.2969 101.47 30.4414 100.995 30.4414 100.39C30.4414 99.8197 30.2852 99.3627 29.9727 99.0189C29.6641 98.6713 29.252 98.4974 28.7363 98.4974C28.2637 98.4974 27.8926 98.601 27.623 98.808L27.3359 99.0424L26.4688 98.8197Z" fill="#333333"/>
<path d="M106.934 193.82L107.367 189.566H111.738V190.568H108.287L108.029 192.894C108.447 192.648 108.922 192.525 109.453 192.525C110.23 192.525 110.848 192.783 111.305 193.298C111.762 193.81 111.99 194.503 111.99 195.378C111.99 196.257 111.752 196.951 111.275 197.458C110.803 197.962 110.141 198.214 109.289 198.214C108.535 198.214 107.92 198.005 107.443 197.587C106.967 197.169 106.695 196.591 106.629 195.853H107.654C107.721 196.341 107.895 196.71 108.176 196.96C108.457 197.206 108.828 197.329 109.289 197.329C109.793 197.329 110.188 197.158 110.473 196.814C110.762 196.47 110.906 195.995 110.906 195.39C110.906 194.82 110.75 194.363 110.438 194.019C110.129 193.671 109.717 193.497 109.201 193.497C108.729 193.497 108.357 193.601 108.088 193.808L107.801 194.042L106.934 193.82ZM114.756 190.222V191.757H115.939V192.595H114.756V196.527C114.756 196.781 114.809 196.972 114.914 197.101C115.02 197.226 115.199 197.288 115.453 197.288C115.578 197.288 115.75 197.265 115.969 197.218V198.097C115.684 198.175 115.406 198.214 115.137 198.214C114.652 198.214 114.287 198.068 114.041 197.775C113.795 197.482 113.672 197.066 113.672 196.527V192.595H112.518V191.757H113.672V190.222H114.756ZM118.295 192.525C118.775 191.935 119.4 191.64 120.17 191.64C121.51 191.64 122.186 192.396 122.197 193.908V198.097H121.113V193.902C121.109 193.445 121.004 193.107 120.797 192.888C120.594 192.669 120.275 192.56 119.842 192.56C119.49 192.56 119.182 192.654 118.916 192.841C118.65 193.029 118.443 193.275 118.295 193.579V198.097H117.211V189.097H118.295V192.525Z" fill="#333333"/>
<path d="M197.26 198.097H196.17V190.872L193.984 191.675V190.691L197.09 189.525H197.26V198.097ZM205.785 194.458C205.785 195.728 205.568 196.671 205.135 197.288C204.701 197.906 204.023 198.214 203.102 198.214C202.191 198.214 201.518 197.913 201.08 197.312C200.643 196.706 200.416 195.804 200.4 194.605V193.158C200.4 191.904 200.617 190.972 201.051 190.363C201.484 189.753 202.164 189.449 203.09 189.449C204.008 189.449 204.684 189.744 205.117 190.333C205.551 190.919 205.773 191.826 205.785 193.052V194.458ZM204.701 192.976C204.701 192.058 204.572 191.39 204.314 190.972C204.057 190.55 203.648 190.339 203.09 190.339C202.535 190.339 202.131 190.548 201.877 190.966C201.623 191.384 201.492 192.027 201.484 192.894V194.628C201.484 195.55 201.617 196.232 201.883 196.673C202.152 197.111 202.559 197.329 203.102 197.329C203.637 197.329 204.033 197.122 204.291 196.708C204.553 196.294 204.689 195.642 204.701 194.751V192.976ZM208.756 190.222V191.757H209.939V192.595H208.756V196.527C208.756 196.781 208.809 196.972 208.914 197.101C209.02 197.226 209.199 197.288 209.453 197.288C209.578 197.288 209.75 197.265 209.969 197.218V198.097C209.684 198.175 209.406 198.214 209.137 198.214C208.652 198.214 208.287 198.068 208.041 197.775C207.795 197.482 207.672 197.066 207.672 196.527V192.595H206.518V191.757H207.672V190.222H208.756ZM212.295 192.525C212.775 191.935 213.4 191.64 214.17 191.64C215.51 191.64 216.186 192.396 216.197 193.908V198.097H215.113V193.902C215.109 193.445 215.004 193.107 214.797 192.888C214.594 192.669 214.275 192.56 213.842 192.56C213.49 192.56 213.182 192.654 212.916 192.841C212.65 193.029 212.443 193.275 212.295 193.579V198.097H211.211V189.097H212.295V192.525Z" fill="#333333"/>
<path d="M291.26 198.097H290.17V190.872L287.984 191.675V190.691L291.09 189.525H291.26V198.097ZM294.934 193.82L295.367 189.566H299.738V190.568H296.287L296.029 192.894C296.447 192.648 296.922 192.525 297.453 192.525C298.23 192.525 298.848 192.783 299.305 193.298C299.762 193.81 299.99 194.503 299.99 195.378C299.99 196.257 299.752 196.951 299.275 197.458C298.803 197.962 298.141 198.214 297.289 198.214C296.535 198.214 295.92 198.005 295.443 197.587C294.967 197.169 294.695 196.591 294.629 195.853H295.654C295.721 196.341 295.895 196.71 296.176 196.96C296.457 197.206 296.828 197.329 297.289 197.329C297.793 197.329 298.188 197.158 298.473 196.814C298.762 196.47 298.906 195.995 298.906 195.39C298.906 194.82 298.75 194.363 298.438 194.019C298.129 193.671 297.717 193.497 297.201 193.497C296.729 193.497 296.357 193.601 296.088 193.808L295.801 194.042L294.934 193.82ZM302.756 190.222V191.757H303.939V192.595H302.756V196.527C302.756 196.781 302.809 196.972 302.914 197.101C303.02 197.226 303.199 197.288 303.453 197.288C303.578 197.288 303.75 197.265 303.969 197.218V198.097C303.684 198.175 303.406 198.214 303.137 198.214C302.652 198.214 302.287 198.068 302.041 197.775C301.795 197.482 301.672 197.066 301.672 196.527V192.595H300.518V191.757H301.672V190.222H302.756ZM306.295 192.525C306.775 191.935 307.4 191.64 308.17 191.64C309.51 191.64 310.186 192.396 310.197 193.908V198.097H309.113V193.902C309.109 193.445 309.004 193.107 308.797 192.888C308.594 192.669 308.275 192.56 307.842 192.56C307.49 192.56 307.182 192.654 306.916 192.841C306.65 193.029 306.443 193.275 306.295 193.579V198.097H305.211V189.097H306.295V192.525Z" fill="#333333"/>
<path d="M399.287 198.097H393.697V197.318L396.65 194.036C397.088 193.54 397.389 193.138 397.553 192.829C397.721 192.517 397.805 192.195 397.805 191.863C397.805 191.417 397.67 191.052 397.4 190.767C397.131 190.482 396.771 190.339 396.322 190.339C395.783 190.339 395.363 190.494 395.062 190.802C394.766 191.107 394.617 191.533 394.617 192.079H393.533C393.533 191.294 393.785 190.66 394.289 190.175C394.797 189.691 395.475 189.449 396.322 189.449C397.115 189.449 397.742 189.658 398.203 190.076C398.664 190.49 398.895 191.042 398.895 191.734C398.895 192.574 398.359 193.574 397.289 194.734L395.004 197.212H399.287V198.097ZM405.785 194.458C405.785 195.728 405.568 196.671 405.135 197.288C404.701 197.906 404.023 198.214 403.102 198.214C402.191 198.214 401.518 197.913 401.08 197.312C400.643 196.706 400.416 195.804 400.4 194.605V193.158C400.4 191.904 400.617 190.972 401.051 190.363C401.484 189.753 402.164 189.449 403.09 189.449C404.008 189.449 404.684 189.744 405.117 190.333C405.551 190.919 405.773 191.826 405.785 193.052V194.458ZM404.701 192.976C404.701 192.058 404.572 191.39 404.314 190.972C404.057 190.55 403.648 190.339 403.09 190.339C402.535 190.339 402.131 190.548 401.877 190.966C401.623 191.384 401.492 192.027 401.484 192.894V194.628C401.484 195.55 401.617 196.232 401.883 196.673C402.152 197.111 402.559 197.329 403.102 197.329C403.637 197.329 404.033 197.122 404.291 196.708C404.553 196.294 404.689 195.642 404.701 194.751V192.976ZM408.756 190.222V191.757H409.939V192.595H408.756V196.527C408.756 196.781 408.809 196.972 408.914 197.101C409.02 197.226 409.199 197.288 409.453 197.288C409.578 197.288 409.75 197.265 409.969 197.218V198.097C409.684 198.175 409.406 198.214 409.137 198.214C408.652 198.214 408.287 198.068 408.041 197.775C407.795 197.482 407.672 197.066 407.672 196.527V192.595H406.518V191.757H407.672V190.222H408.756ZM412.295 192.525C412.775 191.935 413.4 191.64 414.17 191.64C415.51 191.64 416.186 192.396 416.197 193.908V198.097H415.113V193.902C415.109 193.445 415.004 193.107 414.797 192.888C414.594 192.669 414.275 192.56 413.842 192.56C413.49 192.56 413.182 192.654 412.916 192.841C412.65 193.029 412.443 193.275 412.295 193.579V198.097H411.211V189.097H412.295V192.525Z" fill="#333333"/>
<path d="M40.8899 1V185.813" stroke="#2D221C"/>
<path d="M417 1V185.813" stroke="#2D221C"/>
<path d="M40.8899 185.813H417.23" stroke="#2D221C"/>
<path d="M40.8899 1H417.23" stroke="#2D221C"/>
<path d="M131.94 74.9254C83.3799 74.9254 40.8899 143.922 40.8899 143.922V185.813H417.23V97.103C417.23 97.103 368.67 102.031 320.11 102.031C271.55 102.031 271.55 5.92834 229.06 5.92834C180.5 5.92834 180.5 74.9254 131.94 74.9254Z" fill="#0779B5" fill-opacity="0.8"/>
<path d="M131.94 79.8538C83.3799 79.8538 40.8899 42.8911 40.8899 42.8911V185.813H417.23V161.172C417.23 161.172 368.67 89.7105 320.11 89.7105C271.55 89.7105 271.55 171.028 229.06 171.028C180.5 171.028 180.5 79.8538 131.94 79.8538Z" fill="#C0B904" fill-opacity="0.8"/>
<path d="M13 132.453V133.584L6.42578 137.879H13V139.01H4.46875V137.879L11.0723 133.572H4.46875L4.46875 132.453H13ZM12.373 126.711C12.8691 127.133 13.1172 127.752 13.1172 128.568C13.1172 129.244 12.9219 129.76 12.5312 130.115C12.1367 130.467 11.5547 130.645 10.7852 130.648H6.66016V129.564H10.7559C11.7168 129.564 12.1973 129.174 12.1973 128.393C12.1973 127.564 11.8887 127.014 11.2715 126.74H6.66016V125.656H13V126.688L12.373 126.711ZM6.66016 122.984L7.36328 122.955C6.81641 122.49 6.54297 121.863 6.54297 121.074C6.54297 120.188 6.88281 119.584 7.5625 119.264C7.25781 119.053 7.01172 118.779 6.82422 118.443C6.63672 118.104 6.54297 117.703 6.54297 117.242C6.54297 115.852 7.2793 115.145 8.75195 115.121H13V116.205H8.81641C8.36328 116.205 8.02539 116.309 7.80273 116.516C7.57617 116.723 7.46289 117.07 7.46289 117.559C7.46289 117.961 7.58398 118.295 7.82617 118.561C8.06445 118.826 8.38672 118.98 8.79297 119.023H13V120.113H8.8457C7.92383 120.113 7.46289 120.564 7.46289 121.467C7.46289 122.178 7.76563 122.664 8.37109 122.926H13V124.01H6.66016V122.984ZM9.90039 108.113C10.8691 108.113 11.6484 108.336 12.2383 108.781C12.8242 109.227 13.1172 109.824 13.1172 110.574C13.1172 111.375 12.834 111.994 12.2676 112.432L13 112.484V113.48H4V112.396H7.35742C6.81445 111.959 6.54297 111.355 6.54297 110.586C6.54297 109.816 6.83398 109.213 7.41602 108.775C7.99805 108.334 8.79492 108.113 9.80664 108.113H9.90039ZM9.77734 109.197C9.03906 109.197 8.46875 109.34 8.06641 109.625C7.66406 109.91 7.46289 110.32 7.46289 110.855C7.46289 111.57 7.79492 112.084 8.45898 112.396H11.2012C11.8652 112.064 12.1973 111.547 12.1973 110.844C12.1973 110.324 11.9961 109.92 11.5938 109.631C11.1914 109.342 10.5859 109.197 9.77734 109.197ZM13.1172 104.111C13.1172 104.971 12.8359 105.67 12.2734 106.209C11.707 106.748 10.9512 107.018 10.0059 107.018H9.80664C9.17773 107.018 8.61719 106.898 8.125 106.66C7.62891 106.418 7.24219 106.082 6.96484 105.652C6.68359 105.219 6.54297 104.75 6.54297 104.246C6.54297 103.422 6.81445 102.781 7.35742 102.324C7.90039 101.867 8.67773 101.639 9.68945 101.639H10.1406V105.934C10.7656 105.918 11.2715 105.736 11.6582 105.389C12.041 105.037 12.2324 104.592 12.2324 104.053C12.2324 103.67 12.1543 103.346 11.998 103.08C11.8418 102.814 11.6348 102.582 11.377 102.383L11.8926 101.721C12.709 102.252 13.1172 103.049 13.1172 104.111ZM7.43359 104.246C7.43359 104.684 7.59375 105.051 7.91406 105.348C8.23047 105.645 8.67578 105.828 9.25 105.898V102.723H9.16797C8.61719 102.754 8.19141 102.902 7.89063 103.168C7.58594 103.434 7.43359 103.793 7.43359 104.246ZM7.63281 97.3145C7.60547 97.4785 7.5918 97.6562 7.5918 97.8477C7.5918 98.5586 7.89453 99.041 8.5 99.2949H13V100.379H6.66016V99.3242L7.39258 99.3066C6.82617 98.9512 6.54297 98.4473 6.54297 97.7949C6.54297 97.584 6.57031 97.4238 6.625 97.3145H7.63281ZM9.77148 93.623C9.15039 93.623 8.5918 93.502 8.0957 93.2598C7.59961 93.0137 7.2168 92.6738 6.94727 92.2402C6.67773 91.8027 6.54297 91.3047 6.54297 90.7461C6.54297 89.8828 6.8418 89.1855 7.43945 88.6543C8.03711 88.1191 8.83203 87.8516 9.82422 87.8516H9.90039C10.5176 87.8516 11.0723 87.9707 11.5645 88.209C12.0527 88.4434 12.4336 88.7812 12.707 89.2227C12.9805 89.6602 13.1172 90.1641 13.1172 90.7344C13.1172 91.5938 12.8184 92.291 12.2207 92.8262C11.623 93.3574 10.832 93.623 9.84766 93.623H9.77148ZM9.90039 92.5332C10.6035 92.5332 11.168 92.3711 11.5938 92.0469C12.0195 91.7188 12.2324 91.2812 12.2324 90.7344C12.2324 90.1836 12.0176 89.7461 11.5879 89.4219C11.1543 89.0977 10.5488 88.9355 9.77148 88.9355C9.07617 88.9355 8.51367 89.1016 8.08398 89.4336C7.65039 89.7617 7.43359 90.1992 7.43359 90.7461C7.43359 91.2812 7.64648 91.7129 8.07227 92.041C8.49805 92.3691 9.10742 92.5332 9.90039 92.5332ZM13 85.959H7.49805V86.9609H6.66016V85.959H6.00977C5.33008 85.959 4.80469 85.7773 4.43359 85.4141C4.0625 85.0508 3.87695 84.5371 3.87695 83.873C3.87695 83.623 3.91016 83.375 3.97656 83.1289L4.85547 83.1875C4.82031 83.3711 4.80273 83.5664 4.80273 83.7734C4.80273 84.125 4.90625 84.3965 5.11328 84.5879C5.31641 84.7793 5.60938 84.875 5.99219 84.875H6.66016V83.5215H7.49805V84.875H13V85.959ZM9.90039 73.9883C10.8652 73.9883 11.6426 74.209 12.2324 74.6504C12.8223 75.0918 13.1172 75.6895 13.1172 76.4434C13.1172 77.2129 12.873 77.8184 12.3848 78.2598H15.4375V79.3438H6.66016V78.3535L7.36328 78.3008C6.81641 77.8594 6.54297 77.2461 6.54297 76.4609C6.54297 75.6992 6.83008 75.0977 7.4043 74.6562C7.97852 74.2109 8.77734 73.9883 9.80078 73.9883H9.90039ZM9.77734 75.0723C9.0625 75.0723 8.49805 75.2246 8.08398 75.5293C7.66992 75.834 7.46289 76.252 7.46289 76.7832C7.46289 77.4395 7.75391 77.9316 8.33594 78.2598H11.3652C11.9434 77.9355 12.2324 77.4395 12.2324 76.7715C12.2324 76.252 12.0273 75.8398 11.6172 75.5352C11.2031 75.2266 10.5898 75.0723 9.77734 75.0723ZM13.1172 69.9746C13.1172 70.834 12.8359 71.5332 12.2734 72.0723C11.707 72.6113 10.9512 72.8809 10.0059 72.8809H9.80664C9.17773 72.8809 8.61719 72.7617 8.125 72.5234C7.62891 72.2812 7.24219 71.9453 6.96484 71.5156C6.68359 71.082 6.54297 70.6133 6.54297 70.1094C6.54297 69.2852 6.81445 68.6445 7.35742 68.1875C7.90039 67.7305 8.67773 67.502 9.68945 67.502H10.1406V71.7969C10.7656 71.7812 11.2715 71.5996 11.6582 71.252C12.041 70.9004 12.2324 70.4551 12.2324 69.916C12.2324 69.5332 12.1543 69.209 11.998 68.9434C11.8418 68.6777 11.6348 68.4453 11.377 68.2461L11.8926 67.584C12.709 68.1152 13.1172 68.9121 13.1172 69.9746ZM7.43359 70.1094C7.43359 70.5469 7.59375 70.9141 7.91406 71.2109C8.23047 71.5078 8.67578 71.6914 9.25 71.7617V68.5859H9.16797C8.61719 68.6172 8.19141 68.7656 7.89063 69.0312C7.58594 69.2969 7.43359 69.6562 7.43359 70.1094ZM9.77148 66.5293C9.15039 66.5293 8.5918 66.4082 8.0957 66.166C7.59961 65.9199 7.2168 65.5801 6.94727 65.1465C6.67773 64.709 6.54297 64.2109 6.54297 63.6523C6.54297 62.7891 6.8418 62.0918 7.43945 61.5605C8.03711 61.0254 8.83203 60.7578 9.82422 60.7578H9.90039C10.5176 60.7578 11.0723 60.877 11.5645 61.1152C12.0527 61.3496 12.4336 61.6875 12.707 62.1289C12.9805 62.5664 13.1172 63.0703 13.1172 63.6406C13.1172 64.5 12.8184 65.1973 12.2207 65.7324C11.623 66.2637 10.832 66.5293 9.84766 66.5293H9.77148ZM9.90039 65.4395C10.6035 65.4395 11.168 65.2773 11.5938 64.9531C12.0195 64.625 12.2324 64.1875 12.2324 63.6406C12.2324 63.0898 12.0176 62.6523 11.5879 62.3281C11.1543 62.0039 10.5488 61.8418 9.77148 61.8418C9.07617 61.8418 8.51367 62.0078 8.08398 62.3398C7.65039 62.668 7.43359 63.1055 7.43359 63.6523C7.43359 64.1875 7.64648 64.6191 8.07227 64.9473C8.49805 65.2754 9.10742 65.4395 9.90039 65.4395ZM9.90039 54.043C10.8652 54.043 11.6426 54.2637 12.2324 54.7051C12.8223 55.1465 13.1172 55.7441 13.1172 56.498C13.1172 57.2676 12.873 57.873 12.3848 58.3145H15.4375V59.3984H6.66016V58.4082L7.36328 58.3555C6.81641 57.9141 6.54297 57.3008 6.54297 56.5156C6.54297 55.7539 6.83008 55.1523 7.4043 54.7109C7.97852 54.2656 8.77734 54.043 9.80078 54.043H9.90039ZM9.77734 55.127C9.0625 55.127 8.49805 55.2793 8.08398 55.584C7.66992 55.8887 7.46289 56.3066 7.46289 56.8379C7.46289 57.4941 7.75391 57.9863 8.33594 58.3145H11.3652C11.9434 57.9902 12.2324 57.4941 12.2324 56.8262C12.2324 56.3066 12.0273 55.8945 11.6172 55.5898C11.2031 55.2812 10.5898 55.127 9.77734 55.127ZM13 51.4824V52.5664H4V51.4824H13ZM13.1172 47.1113C13.1172 47.9707 12.8359 48.6699 12.2734 49.209C11.707 49.748 10.9512 50.0176 10.0059 50.0176H9.80664C9.17773 50.0176 8.61719 49.8984 8.125 49.6602C7.62891 49.418 7.24219 49.082 6.96484 48.6523C6.68359 48.2188 6.54297 47.75 6.54297 47.2461C6.54297 46.4219 6.81445 45.7812 7.35742 45.3242C7.90039 44.8672 8.67773 44.6387 9.68945 44.6387H10.1406V48.9336C10.7656 48.918 11.2715 48.7363 11.6582 48.3887C12.041 48.0371 12.2324 47.5918 12.2324 47.0527C12.2324 46.6699 12.1543 46.3457 11.998 46.0801C11.8418 45.8145 11.6348 45.582 11.377 45.3828L11.8926 44.7207C12.709 45.252 13.1172 46.0488 13.1172 47.1113ZM7.43359 47.2461C7.43359 47.6836 7.59375 48.0508 7.91406 48.3477C8.23047 48.6445 8.67578 48.8281 9.25 48.8984V45.7227H9.16797C8.61719 45.7539 8.19141 45.9023 7.89063 46.168C7.58594 46.4336 7.43359 46.793 7.43359 47.2461Z" fill="#2D221C"/>
</svg>
