<svg width="584" height="352" viewBox="0 0 584 352" fill="none" xmlns="http://www.w3.org/2000/svg">
<rect x="0.5" y="0.5" width="583" height="351" stroke="#2D221C"/>
<g opacity="0.24" clip-path="url(#clip0)">
<path d="M465.964 148.826C474.982 148.826 474.982 124.862 484 124.862V294H-147.254V278.06C-137.484 278.06 -138.236 286.875 -129.218 286.875C-120.2 286.875 -120.2 261.841 -111.182 261.841C-102.164 261.841 -103.667 269.544 -93.1461 269.544C-82.6252 269.544 -85.6312 283.965 -75.1104 283.965C-64.5894 283.965 -66.8439 278.488 -57.0745 278.488C-47.3051 278.488 -49.1838 252.384 -39.0387 252.384C-28.8936 252.384 -31.5238 260.9 -21.0029 260.9C-10.482 260.9 -12.3607 272.625 -2.96707 272.625C6.42661 272.625 4.92361 233.684 15.0688 233.684C25.2139 233.684 24.0867 247.163 33.1046 247.163C42.1225 247.163 40.6195 228.292 51.1404 228.292C61.6613 228.292 59.4068 240.359 69.1762 240.359C78.9456 240.359 77.4426 191.019 87.212 191.019C96.9814 191.019 95.1027 204.756 105.248 204.756C115.393 204.756 112.763 213.828 123.284 213.828C133.805 213.828 131.174 190.292 141.319 190.292C151.465 190.292 148.834 201.846 159.355 201.846C169.876 201.846 167.997 182.803 177.391 182.803C186.785 182.803 185.658 150.965 195.427 150.965C205.196 150.965 203.693 204.242 213.463 204.242C223.232 204.242 222.105 166.927 231.499 166.927C240.892 166.927 239.013 183.274 249.534 183.274C260.055 183.274 257.801 197.952 267.57 197.952C277.34 197.952 276.212 173.645 285.606 173.645C295 173.645 294.248 196.753 303.642 196.753C313.035 196.753 311.908 186.483 321.678 186.483C331.447 186.483 329.944 165.301 339.713 165.301C349.483 165.301 347.98 173.774 357.749 173.774C367.519 173.774 366.767 142.835 375.785 142.835C384.803 142.835 383.3 185.242 393.821 185.242C404.342 185.242 401.712 156.443 411.857 156.443C422.002 156.443 420.499 168.296 429.893 168.296C439.286 168.296 438.535 138.769 447.928 138.769C457.322 138.769 456.946 148.826 465.964 148.826Z" fill="#56CCF2"/>
</g>
<g clip-path="url(#clip1)">
<path d="M484 125.628C474.982 125.628 474.982 149.483 465.964 149.483C456.946 149.483 457.322 139.472 447.928 139.472C438.535 139.472 439.286 168.866 429.893 168.866C420.499 168.866 422.002 157.066 411.857 157.066C401.712 157.066 404.342 185.736 393.821 185.736C383.3 185.736 384.803 143.519 375.785 143.519C366.767 143.519 367.519 174.319 357.749 174.319C347.98 174.319 349.483 165.884 339.713 165.884C329.944 165.884 331.447 186.971 321.678 186.971C311.908 186.971 313.035 197.195 303.642 197.195C294.248 197.195 295 174.191 285.606 174.191C276.212 174.191 277.34 198.388 267.57 198.388C257.801 198.388 260.055 183.776 249.534 183.776C239.013 183.776 240.892 167.503 231.499 167.503C222.105 167.503 223.232 204.65 213.463 204.65C203.693 204.65 205.196 151.613 195.427 151.613C185.658 151.613 186.785 183.308 177.391 183.308C167.997 183.308 169.876 202.264 159.355 202.264C148.834 202.264 151.465 190.763 141.319 190.763C131.174 190.763 133.805 214.192 123.284 214.192C112.763 214.192 115.393 205.161 105.248 205.161C95.1027 205.161 96.9814 191.487 87.212 191.487C77.4426 191.487 78.9456 240.604 69.1762 240.604C59.4068 240.604 61.6613 228.591 51.1404 228.591C40.6195 228.591 42.1225 247.378 33.1046 247.378C24.0867 247.378 25.2139 233.959 15.0688 233.959C4.92361 233.959 6.42659 272.724 -2.96706 272.724C-12.3607 272.724 -10.482 261.052 -21.0029 261.052C-31.5238 261.052 -28.8936 252.575 -39.0387 252.575C-49.1838 252.575 -47.3051 278.561 -57.0745 278.561C-66.8439 278.561 -64.5894 284.013 -75.1103 284.013C-85.6312 284.013 -82.6253 269.657 -93.1461 269.657C-103.667 269.657 -102.164 261.989 -111.182 261.989C-120.2 261.989 -120.2 286.91 -129.218 286.91C-138.236 286.91 -137.484 278.135 -147.254 278.135" stroke="#2F80ED" stroke-width="0.751492"/>
<rect x="0.375746" y="-0.375746" width="6.75149" height="6.75149" rx="3.37575" transform="matrix(-1 0 0 1 291.267 173.657)" fill="#2F80ED" stroke="white" stroke-width="0.751492"/>
</g>
<rect x="0.375746" y="-0.375746" width="6.75149" height="6.75149" rx="3.37575" transform="matrix(-1 0 0 1 142.267 192.141)" fill="#2F80ED" stroke="white" stroke-width="0.751492"/>
<rect x="0.375746" y="-0.375746" width="6.75149" height="6.75149" rx="3.37575" transform="matrix(-1 0 0 1 475.793 142.497)" fill="#2F80ED" stroke="white" stroke-width="0.751492"/>
<rect x="0.375746" y="-0.375746" width="6.75149" height="6.75149" rx="3.37575" transform="matrix(-1 0 0 1 446.793 136.943)" fill="#2F80ED" stroke="white" stroke-width="0.751492"/>
<rect x="0.375746" y="-0.375746" width="6.75149" height="6.75149" rx="3.37575" transform="matrix(-1 0 0 1 420.793 155.455)" fill="#2F80ED" stroke="white" stroke-width="0.751492"/>
<rect x="0.375746" y="-0.375746" width="6.75149" height="6.75149" rx="3.37575" transform="matrix(-1 0 0 1 395.793 179.52)" fill="#2F80ED" stroke="white" stroke-width="0.751492"/>
<rect x="0.375746" y="-0.375746" width="6.75149" height="6.75149" rx="3.37575" transform="matrix(-1 0 0 1 379.793 138.795)" fill="#2F80ED" stroke="white" stroke-width="0.751492"/>
<rect x="0.375746" y="-0.375746" width="6.75149" height="6.75149" rx="3.37575" transform="matrix(-1 0 0 1 320.793 185.073)" fill="#2F80ED" stroke="white" stroke-width="0.751492"/>
<rect x="0.375746" y="-0.375746" width="6.75149" height="6.75149" rx="3.37575" transform="matrix(-1 0 0 1 351.793 164.614)" fill="#2F80ED" stroke="white" stroke-width="0.751492"/>
<rect x="0.375746" y="-0.375746" width="6.75149" height="6.75149" rx="3.37575" transform="matrix(-1 0 0 1 187.793 176.446)" fill="#2F80ED" stroke="white" stroke-width="0.751492"/>
<rect x="0.375746" y="-0.375746" width="6.75149" height="6.75149" rx="3.37575" transform="matrix(-1 0 0 1 232.793 166.562)" fill="#2F80ED" stroke="white" stroke-width="0.751492"/>
<rect x="-0.5" y="0.5" width="383" height="189" transform="matrix(-1 0 0 1 483 104)" stroke="#2D221C"/>
<path d="M33.9248 37.6139H29.583V45.0914H27.1328V26.6071H33.252C35.334 26.6071 36.9336 27.081 38.0508 28.0289C39.1764 28.9768 39.7393 30.3564 39.7393 32.1676C39.7393 33.3186 39.4261 34.3216 38.7998 35.1764C38.182 36.0312 37.3187 36.6702 36.21 37.0934L40.5518 44.9391V45.0914H37.9365L33.9248 37.6139ZM29.583 35.6207H33.3281C34.5384 35.6207 35.499 35.3076 36.21 34.6813C36.9294 34.055 37.2891 33.2171 37.2891 32.1676C37.2891 31.025 36.9463 30.149 36.2607 29.5397C35.5837 28.9303 34.6019 28.6214 33.3154 28.6129H29.583V35.6207ZM48.499 45.3453C46.637 45.3453 45.1221 44.736 43.9541 43.5172C42.7861 42.29 42.2021 40.6523 42.2021 38.6041V38.1725C42.2021 36.8099 42.4603 35.5953 42.9766 34.5289C43.5013 33.4541 44.2292 32.6162 45.1602 32.0153C46.0996 31.4059 47.1152 31.1012 48.207 31.1012C49.9928 31.1012 51.3809 31.6894 52.3711 32.8658C53.3613 34.0423 53.8564 35.7265 53.8564 37.9186V38.8961H44.5508C44.5846 40.2503 44.9782 41.3463 45.7314 42.1842C46.4932 43.0136 47.458 43.4283 48.626 43.4283C49.4554 43.4283 50.1579 43.2591 50.7334 42.9205C51.3089 42.582 51.8125 42.1334 52.2441 41.5748L53.6787 42.692C52.5277 44.4609 50.8011 45.3453 48.499 45.3453ZM48.207 33.0309C47.2591 33.0309 46.4635 33.3779 45.8203 34.0719C45.1771 34.7574 44.7793 35.7223 44.627 36.9664H51.5078V36.7887C51.4401 35.5953 51.1185 34.6728 50.543 34.0211C49.9674 33.361 49.1888 33.0309 48.207 33.0309ZM56.0146 38.109C56.0146 36.0016 56.514 34.3089 57.5127 33.0309C58.5114 31.7444 59.819 31.1012 61.4355 31.1012C63.0436 31.1012 64.3174 31.6513 65.2568 32.7516V25.5914H67.6055V45.0914H65.4473L65.333 43.6188C64.3936 44.7698 63.0859 45.3453 61.4102 45.3453C59.819 45.3453 58.5199 44.6936 57.5127 43.3903C56.514 42.0869 56.0146 40.3857 56.0146 38.2867V38.109ZM58.3633 38.3756C58.3633 39.9329 58.6849 41.1517 59.3281 42.0319C59.9714 42.9121 60.86 43.3522 61.9941 43.3522C63.4837 43.3522 64.5713 42.6836 65.2568 41.3463V35.0367C64.5544 33.7418 63.4753 33.0944 62.0195 33.0944C60.8685 33.0944 59.9714 33.5387 59.3281 34.4274C58.6849 35.316 58.3633 36.6321 58.3633 38.3756ZM76.9619 45.3453C75.0999 45.3453 73.585 44.736 72.417 43.5172C71.249 42.29 70.665 40.6523 70.665 38.6041V38.1725C70.665 36.8099 70.9232 35.5953 71.4395 34.5289C71.9642 33.4541 72.6921 32.6162 73.623 32.0153C74.5625 31.4059 75.5781 31.1012 76.6699 31.1012C78.4557 31.1012 79.8438 31.6894 80.834 32.8658C81.8242 34.0423 82.3193 35.7265 82.3193 37.9186V38.8961H73.0137C73.0475 40.2503 73.4411 41.3463 74.1943 42.1842C74.9561 43.0136 75.9209 43.4283 77.0889 43.4283C77.9183 43.4283 78.6208 43.2591 79.1963 42.9205C79.7718 42.582 80.2754 42.1334 80.707 41.5748L82.1416 42.692C80.9906 44.4609 79.264 45.3453 76.9619 45.3453ZM76.6699 33.0309C75.722 33.0309 74.9264 33.3779 74.2832 34.0719C73.64 34.7574 73.2422 35.7223 73.0898 36.9664H79.9707V36.7887C79.903 35.5953 79.5814 34.6728 79.0059 34.0211C78.4303 33.361 77.6517 33.0309 76.6699 33.0309ZM90.749 45.3453C88.887 45.3453 87.3721 44.736 86.2041 43.5172C85.0361 42.29 84.4521 40.6523 84.4521 38.6041V38.1725C84.4521 36.8099 84.7103 35.5953 85.2266 34.5289C85.7513 33.4541 86.4792 32.6162 87.4102 32.0153C88.3496 31.4059 89.3652 31.1012 90.457 31.1012C92.2428 31.1012 93.6309 31.6894 94.6211 32.8658C95.6113 34.0423 96.1064 35.7265 96.1064 37.9186V38.8961H86.8008C86.8346 40.2503 87.2282 41.3463 87.9814 42.1842C88.7432 43.0136 89.708 43.4283 90.876 43.4283C91.7054 43.4283 92.4079 43.2591 92.9834 42.9205C93.5589 42.582 94.0625 42.1334 94.4941 41.5748L95.9287 42.692C94.7777 44.4609 93.0511 45.3453 90.749 45.3453ZM90.457 33.0309C89.5091 33.0309 88.7135 33.3779 88.0703 34.0719C87.4271 34.7574 87.0293 35.7223 86.877 36.9664H93.7578V36.7887C93.6901 35.5953 93.3685 34.6728 92.793 34.0211C92.2174 33.361 91.4388 33.0309 90.457 33.0309ZM101.045 31.3551L101.108 32.8785C102.116 31.6936 103.474 31.1012 105.184 31.1012C107.105 31.1012 108.412 31.8375 109.106 33.3102C109.563 32.65 110.156 32.1168 110.884 31.7106C111.62 31.3043 112.488 31.1012 113.486 31.1012C116.499 31.1012 118.031 32.6966 118.082 35.8873V45.0914H115.733V36.027C115.733 35.0452 115.509 34.3131 115.061 33.8307C114.612 33.3398 113.859 33.0944 112.801 33.0944C111.929 33.0944 111.205 33.3567 110.63 33.8815C110.054 34.3977 109.72 35.096 109.627 35.9762V45.0914H107.266V36.0905C107.266 34.0931 106.288 33.0944 104.333 33.0944C102.793 33.0944 101.739 33.7503 101.172 35.0621V45.0914H98.8232V31.3551H101.045ZM127.337 45.3453C125.475 45.3453 123.96 44.736 122.792 43.5172C121.624 42.29 121.04 40.6523 121.04 38.6041V38.1725C121.04 36.8099 121.298 35.5953 121.814 34.5289C122.339 33.4541 123.067 32.6162 123.998 32.0153C124.938 31.4059 125.953 31.1012 127.045 31.1012C128.831 31.1012 130.219 31.6894 131.209 32.8658C132.199 34.0423 132.694 35.7265 132.694 37.9186V38.8961H123.389C123.423 40.2503 123.816 41.3463 124.569 42.1842C125.331 43.0136 126.296 43.4283 127.464 43.4283C128.293 43.4283 128.996 43.2591 129.571 42.9205C130.147 42.582 130.65 42.1334 131.082 41.5748L132.517 42.692C131.366 44.4609 129.639 45.3453 127.337 45.3453ZM127.045 33.0309C126.097 33.0309 125.301 33.3779 124.658 34.0719C124.015 34.7574 123.617 35.7223 123.465 36.9664H130.346V36.7887C130.278 35.5953 129.956 34.6728 129.381 34.0211C128.805 33.361 128.027 33.0309 127.045 33.0309ZM134.853 38.109C134.853 36.0016 135.352 34.3089 136.351 33.0309C137.349 31.7444 138.657 31.1012 140.273 31.1012C141.882 31.1012 143.155 31.6513 144.095 32.7516V25.5914H146.443V45.0914H144.285L144.171 43.6188C143.231 44.7698 141.924 45.3453 140.248 45.3453C138.657 45.3453 137.358 44.6936 136.351 43.3903C135.352 42.0869 134.853 40.3857 134.853 38.2867V38.109ZM137.201 38.3756C137.201 39.9329 137.523 41.1517 138.166 42.0319C138.809 42.9121 139.698 43.3522 140.832 43.3522C142.322 43.3522 143.409 42.6836 144.095 41.3463V35.0367C143.392 33.7418 142.313 33.0944 140.857 33.0944C139.706 33.0944 138.809 33.5387 138.166 34.4274C137.523 35.316 137.201 36.6321 137.201 38.3756ZM170.514 39.2262C170.285 41.1813 169.562 42.692 168.343 43.7584C167.132 44.8164 165.52 45.3453 163.506 45.3453C161.322 45.3453 159.57 44.5625 158.25 42.9967C156.938 41.4309 156.282 39.3362 156.282 36.7125V34.9352C156.282 33.2171 156.587 31.7063 157.196 30.403C157.814 29.0996 158.686 28.1009 159.812 27.4069C160.937 26.7044 162.241 26.3531 163.722 26.3531C165.685 26.3531 167.259 26.9033 168.444 28.0035C169.629 29.0953 170.319 30.6103 170.514 32.5485H168.063C167.852 31.0758 167.391 30.0094 166.68 29.3492C165.977 28.6891 164.991 28.359 163.722 28.359C162.164 28.359 160.941 28.9345 160.053 30.0856C159.173 31.2366 158.732 32.8743 158.732 34.9987V36.7887C158.732 38.7946 159.151 40.3899 159.989 41.5748C160.827 42.7597 161.999 43.3522 163.506 43.3522C164.86 43.3522 165.897 43.0475 166.616 42.4381C167.344 41.8203 167.826 40.7496 168.063 39.2262H170.514ZM172.862 38.0963C172.862 36.7506 173.125 35.5403 173.649 34.4655C174.183 33.3906 174.919 32.5612 175.858 31.9772C176.806 31.3932 177.885 31.1012 179.096 31.1012C180.966 31.1012 182.477 31.7487 183.628 33.0436C184.787 34.3385 185.367 36.0608 185.367 38.2106V38.3756C185.367 39.7128 185.109 40.9147 184.593 41.9811C184.085 43.039 183.353 43.8642 182.396 44.4567C181.449 45.0491 180.357 45.3453 179.121 45.3453C177.259 45.3453 175.748 44.6979 174.589 43.403C173.438 42.108 172.862 40.3942 172.862 38.2614V38.0963ZM175.224 38.3756C175.224 39.899 175.575 41.122 176.277 42.0446C176.988 42.9671 177.936 43.4283 179.121 43.4283C180.314 43.4283 181.262 42.9628 181.965 42.0319C182.667 41.0924 183.019 39.7806 183.019 38.0963C183.019 36.5898 182.659 35.3711 181.939 34.4401C181.229 33.5006 180.281 33.0309 179.096 33.0309C177.936 33.0309 177.001 33.4921 176.29 34.4147C175.579 35.3372 175.224 36.6575 175.224 38.3756ZM196.793 43.733C195.879 44.8079 194.537 45.3453 192.769 45.3453C191.304 45.3453 190.187 44.9222 189.417 44.0758C188.655 43.221 188.27 41.9599 188.262 40.2926V31.3551H190.61V40.2291C190.61 42.3112 191.457 43.3522 193.149 43.3522C194.944 43.3522 196.137 42.6836 196.729 41.3463V31.3551H199.078V45.0914H196.844L196.793 43.733ZM214.262 38.3756C214.262 40.4661 213.784 42.1503 212.827 43.4283C211.871 44.7063 210.576 45.3453 208.942 45.3453C207.275 45.3453 205.963 44.8164 205.007 43.7584V50.3727H202.658V31.3551H204.804L204.918 32.8785C205.874 31.6936 207.203 31.1012 208.904 31.1012C210.555 31.1012 211.858 31.7233 212.814 32.9674C213.779 34.2115 214.262 35.9423 214.262 38.1598V38.3756ZM211.913 38.109C211.913 36.5602 211.583 35.3372 210.923 34.4401C210.263 33.5429 209.357 33.0944 208.206 33.0944C206.784 33.0944 205.718 33.7249 205.007 34.986V41.5494C205.709 42.802 206.784 43.4283 208.231 43.4283C209.357 43.4283 210.25 42.984 210.91 42.0953C211.579 41.1982 211.913 39.8694 211.913 38.109ZM216.636 38.0963C216.636 36.7506 216.898 35.5403 217.423 34.4655C217.956 33.3906 218.692 32.5612 219.632 31.9772C220.58 31.3932 221.659 31.1012 222.869 31.1012C224.74 31.1012 226.25 31.7487 227.401 33.0436C228.561 34.3385 229.141 36.0608 229.141 38.2106V38.3756C229.141 39.7128 228.882 40.9147 228.366 41.9811C227.858 43.039 227.126 43.8642 226.17 44.4567C225.222 45.0491 224.13 45.3453 222.895 45.3453C221.033 45.3453 219.522 44.6979 218.362 43.403C217.211 42.108 216.636 40.3942 216.636 38.2614V38.0963ZM218.997 38.3756C218.997 39.899 219.348 41.122 220.051 42.0446C220.762 42.9671 221.71 43.4283 222.895 43.4283C224.088 43.4283 225.036 42.9628 225.738 42.0319C226.441 41.0924 226.792 39.7806 226.792 38.0963C226.792 36.5898 226.432 35.3711 225.713 34.4401C225.002 33.5006 224.054 33.0309 222.869 33.0309C221.71 33.0309 220.774 33.4921 220.063 34.4147C219.353 35.3372 218.997 36.6575 218.997 38.3756ZM234.308 31.3551L234.384 33.0817C235.433 31.7614 236.804 31.1012 238.497 31.1012C241.4 31.1012 242.864 32.7389 242.89 36.0143V45.0914H240.541V36.0016C240.533 35.0114 240.304 34.2793 239.855 33.8053C239.415 33.3313 238.726 33.0944 237.786 33.0944C237.024 33.0944 236.356 33.2975 235.78 33.7037C235.205 34.11 234.756 34.6432 234.435 35.3033V45.0914H232.086V31.3551H234.308ZM254.43 41.4479C254.43 40.8131 254.188 40.3222 253.706 39.9752C253.232 39.6198 252.398 39.3151 251.205 39.0612C250.02 38.8073 249.076 38.5026 248.374 38.1471C247.68 37.7916 247.164 37.3684 246.825 36.8776C246.495 36.3867 246.33 35.8027 246.33 35.1256C246.33 34 246.804 33.0478 247.752 32.2692C248.708 31.4905 249.927 31.1012 251.408 31.1012C252.965 31.1012 254.227 31.5032 255.191 32.3073C256.165 33.1113 256.651 34.1396 256.651 35.3922H254.29C254.29 34.749 254.015 34.1946 253.465 33.7291C252.923 33.2636 252.238 33.0309 251.408 33.0309C250.553 33.0309 249.885 33.2171 249.402 33.5895C248.92 33.9619 248.679 34.4485 248.679 35.0494C248.679 35.6165 248.903 36.0439 249.352 36.3317C249.8 36.6194 250.608 36.8945 251.776 37.1569C252.953 37.4192 253.905 37.7324 254.633 38.0963C255.361 38.4602 255.898 38.9003 256.245 39.4166C256.601 39.9244 256.778 40.5465 256.778 41.2828C256.778 42.5101 256.287 43.4961 255.306 44.2408C254.324 44.9772 253.05 45.3453 251.484 45.3453C250.384 45.3453 249.411 45.1507 248.564 44.7614C247.718 44.372 247.054 43.8304 246.571 43.1364C246.097 42.4339 245.86 41.6764 245.86 40.8639H248.209C248.251 41.651 248.564 42.2773 249.148 42.7428C249.741 43.1998 250.52 43.4283 251.484 43.4283C252.373 43.4283 253.084 43.2506 253.617 42.8951C254.159 42.5312 254.43 42.0488 254.43 41.4479Z" fill="#2D221C"/>
<defs>
<clipPath id="clip0">
<rect width="384" height="169.138" fill="white" transform="matrix(-1 0 0 1 484 124.862)"/>
</clipPath>
<clipPath id="clip1">
<rect width="384" height="168.455" fill="white" transform="matrix(-1 0 0 1 484 125.545)"/>
</clipPath>
</defs>
</svg>
